<svg width="16" height="16" viewBox="0 0 16 16" fill="none" xmlns="http://www.w3.org/2000/svg">
<path d="M1.33366 13.9999H6.66699C6.8438 13.9999 7.01337 13.9297 7.1384 13.8047C7.26342 13.6797 7.33366 13.5101 7.33366 13.3333C7.33366 13.1565 7.26342 12.9869 7.1384 12.8619C7.01337 12.7369 6.8438 12.6666 6.66699 12.6666H2.04766C2.20943 11.5565 2.76508 10.5416 3.61316 9.80722C4.46123 9.07285 5.54515 8.66801 6.66699 8.66661C7.45198 8.67342 8.21461 8.40538 8.82271 7.90893C9.43081 7.41249 9.84607 6.71894 9.9965 5.94847C10.1469 5.17801 10.0231 4.37919 9.64637 3.69046C9.26968 3.00173 8.66389 2.4665 7.934 2.17753C7.20411 1.88856 6.39611 1.86405 5.65005 2.10826C4.90399 2.35248 4.26688 2.85001 3.84914 3.51465C3.4314 4.17928 3.25936 4.96913 3.36283 5.74729C3.46629 6.52546 3.83876 7.2429 4.41566 7.77528C3.30913 8.22416 2.3615 8.99267 1.6938 9.98265C1.02609 10.9726 0.668603 12.1392 0.666992 13.3333C0.666992 13.5101 0.73723 13.6797 0.862254 13.8047C0.987279 13.9297 1.15685 13.9999 1.33366 13.9999ZM6.66699 3.33328C7.06256 3.33328 7.44923 3.45058 7.77813 3.67034C8.10703 3.8901 8.36338 4.20246 8.51475 4.56791C8.66613 4.93337 8.70573 5.3355 8.62856 5.72346C8.55139 6.11142 8.36091 6.46779 8.08121 6.74749C7.8015 7.0272 7.44514 7.21768 7.05717 7.29485C6.66921 7.37202 6.26708 7.33241 5.90163 7.18104C5.53617 7.02966 5.22382 6.77332 5.00405 6.44442C4.78429 6.11552 4.66699 5.72884 4.66699 5.33328C4.66699 4.80285 4.87771 4.29414 5.25278 3.91907C5.62785 3.54399 6.13656 3.33328 6.66699 3.33328ZM15.3337 10.6666C15.3337 10.8434 15.2634 11.013 15.1384 11.138C15.0134 11.263 14.8438 11.3333 14.667 11.3333H12.667V13.3333C12.667 13.5101 12.5968 13.6797 12.4717 13.8047C12.3467 13.9297 12.1771 13.9999 12.0003 13.9999C11.8235 13.9999 11.6539 13.9297 11.5289 13.8047C11.4039 13.6797 11.3337 13.5101 11.3337 13.3333V11.3333H9.33366C9.15685 11.3333 8.98728 11.263 8.86225 11.138C8.73723 11.013 8.66699 10.8434 8.66699 10.6666C8.66699 10.4898 8.73723 10.3202 8.86225 10.1952C8.98728 10.0702 9.15685 9.99995 9.33366 9.99995H11.3337V7.99995C11.3337 7.82314 11.4039 7.65357 11.5289 7.52854C11.6539 7.40352 11.8235 7.33328 12.0003 7.33328C12.1771 7.33328 12.3467 7.40352 12.4717 7.52854C12.5968 7.65357 12.667 7.82314 12.667 7.99995V9.99995H14.667C14.8438 9.99995 15.0134 10.0702 15.1384 10.1952C15.2634 10.3202 15.3337 10.4898 15.3337 10.6666Z" fill="#A1A1A6"/>
</svg>
