<svg width="16" height="16" viewBox="0 0 16 16" fill="none" xmlns="http://www.w3.org/2000/svg">
<path d="M1.33317 13.9999H6.6665C6.84332 13.9999 7.01288 13.9297 7.13791 13.8047C7.26293 13.6797 7.33317 13.5101 7.33317 13.3333C7.33317 13.1565 7.26293 12.9869 7.13791 12.8619C7.01288 12.7369 6.84332 12.6666 6.6665 12.6666H2.04717C2.20894 11.5565 2.76459 10.5416 3.61267 9.80722C4.46074 9.07285 5.54466 8.66801 6.6665 8.66661C7.45149 8.67342 8.21412 8.40538 8.82222 7.90893C9.43033 7.41249 9.84558 6.71894 9.99601 5.94847C10.1464 5.17801 10.0226 4.37919 9.64589 3.69046C9.26919 3.00173 8.6634 2.4665 7.93351 2.17753C7.20362 1.88856 6.39563 1.86405 5.64956 2.10826C4.9035 2.35248 4.26639 2.85001 3.84865 3.51465C3.43091 4.17928 3.25887 4.96913 3.36234 5.74729C3.46581 6.52546 3.83827 7.2429 4.41517 7.77528C3.30864 8.22416 2.36102 8.99267 1.69331 9.98265C1.0256 10.9726 0.668115 12.1392 0.666504 13.3333C0.666504 13.5101 0.736742 13.6797 0.861766 13.8047C0.98679 13.9297 1.15636 13.9999 1.33317 13.9999ZM6.6665 3.33328C7.06207 3.33328 7.44875 3.45058 7.77764 3.67034C8.10654 3.8901 8.36289 4.20246 8.51426 4.56791C8.66564 4.93337 8.70525 5.3355 8.62807 5.72346C8.5509 6.11142 8.36042 6.46779 8.08072 6.74749C7.80101 7.0272 7.44465 7.21768 7.05668 7.29485C6.66872 7.37202 6.26659 7.33241 5.90114 7.18104C5.53568 7.02966 5.22333 6.77332 5.00356 6.44442C4.7838 6.11552 4.6665 5.72884 4.6665 5.33328C4.6665 4.80285 4.87722 4.29414 5.25229 3.91907C5.62736 3.54399 6.13607 3.33328 6.6665 3.33328ZM15.3332 10.6666C15.3332 10.8434 15.2629 11.013 15.1379 11.138C15.0129 11.263 14.8433 11.3333 14.6665 11.3333H12.6665V13.3333C12.6665 13.5101 12.5963 13.6797 12.4712 13.8047C12.3462 13.9297 12.1766 13.9999 11.9998 13.9999C11.823 13.9999 11.6535 13.9297 11.5284 13.8047C11.4034 13.6797 11.3332 13.5101 11.3332 13.3333V11.3333H9.33317C9.15636 11.3333 8.98679 11.263 8.86177 11.138C8.73674 11.013 8.6665 10.8434 8.6665 10.6666C8.6665 10.4898 8.73674 10.3202 8.86177 10.1952C8.98679 10.0702 9.15636 9.99995 9.33317 9.99995H11.3332V7.99995C11.3332 7.82314 11.4034 7.65357 11.5284 7.52854C11.6535 7.40352 11.823 7.33328 11.9998 7.33328C12.1766 7.33328 12.3462 7.40352 12.4712 7.52854C12.5963 7.65357 12.6665 7.82314 12.6665 7.99995V9.99995H14.6665C14.8433 9.99995 15.0129 10.0702 15.1379 10.1952C15.2629 10.3202 15.3332 10.4898 15.3332 10.6666Z" fill="#A1A1A6"/>
</svg>
