<svg width="16" height="16" viewBox="0 0 16 16" fill="none" xmlns="http://www.w3.org/2000/svg">
<path fill-rule="evenodd" clip-rule="evenodd" d="M5.33333 6.66675C5.33333 5.19399 6.52724 4.00008 8 4.00008C9.47273 4.00008 10.6667 5.19399 10.6667 6.66675V7.33341H11.3333C12.622 7.33341 13.6667 8.37808 13.6667 9.66675C13.6667 10.9554 12.622 12.0001 11.3333 12.0001H11.2667C10.8985 12.0001 10.6 12.2985 10.6 12.6667C10.6 13.0349 10.8985 13.3334 11.2667 13.3334H11.3333C13.3584 13.3334 15 11.6918 15 9.66675C15 7.85295 13.683 6.34673 11.9531 6.05224C11.6575 4.13483 10.0002 2.66675 8 2.66675C5.99983 2.66675 4.34254 4.13483 4.04691 6.05224C2.31701 6.34673 1 7.85295 1 9.66675C1 11.6918 2.64162 13.3334 4.66667 13.3334H4.73333C5.10152 13.3334 5.4 13.0349 5.4 12.6667C5.4 12.2985 5.10152 12.0001 4.73333 12.0001H4.66667C3.378 12.0001 2.33333 10.9554 2.33333 9.66675C2.33333 8.37808 3.378 7.33341 4.66667 7.33341H5.33333V6.66675ZM8.66667 7.33341C8.66667 6.96521 8.3682 6.66675 8 6.66675C7.6318 6.66675 7.33333 6.96521 7.33333 7.33341V11.0573L6.47141 10.1953C6.21105 9.93501 5.78895 9.93501 5.52859 10.1953C5.26825 10.4557 5.26825 10.8778 5.52859 11.1381L7.5286 13.1381C7.78893 13.3985 8.21107 13.3985 8.4714 13.1381L10.4714 11.1381C10.7317 10.8778 10.7317 10.4557 10.4714 10.1953C10.2111 9.93501 9.78893 9.93501 9.5286 10.1953L8.66667 11.0573V7.33341Z" fill="#949499"/>
</svg>
