<svg width="16" height="15" viewBox="0 0 16 15" fill="none" xmlns="http://www.w3.org/2000/svg">
<path d="M1.58301 2.83325V6.33325H5.08301" stroke="#949499" stroke-width="2" stroke-linecap="round" stroke-linejoin="round"/>
<path d="M14.417 12.1667V8.66675H10.917" stroke="#949499" stroke-width="2" stroke-linecap="round" stroke-linejoin="round"/>
<path d="M12.1509 6.0335C12.3075 6.47605 12.7932 6.70785 13.2357 6.55125C13.6783 6.39464 13.9101 5.90893 13.7535 5.46638L12.1509 6.0335ZM4.28967 3.78994L4.87173 4.40938C4.87821 4.4033 4.88459 4.39711 4.89087 4.39083L4.28967 3.78994ZM1.00095 5.71383C0.65884 6.0353 0.642105 6.57323 0.963568 6.91533C1.28503 7.25744 1.82296 7.27418 2.16507 6.95271L1.00095 5.71383ZM14.9984 9.28605C15.3405 8.96458 15.3573 8.42665 15.0358 8.08455C14.7143 7.74244 14.1764 7.7257 13.8343 8.04717L14.9984 9.28605ZM11.7097 11.2099L11.1276 10.5905C11.1211 10.5966 11.1148 10.6028 11.1085 10.6091L11.7097 11.2099ZM3.84849 8.96638C3.69188 8.52383 3.20617 8.29203 2.76362 8.44863C2.32107 8.60524 2.08927 9.09095 2.24587 9.5335L3.84849 8.96638ZM13.7535 5.46638C13.0548 3.49189 11.3919 2.01393 9.34909 1.55171L8.97393 3.2098C10.4474 3.5432 11.6469 4.60927 12.1509 6.0335L13.7535 5.46638ZM9.34909 1.55171C7.30625 1.0895 5.16913 1.70766 3.68848 3.18905L4.89087 4.39083C5.95887 3.32229 7.5004 2.8764 8.97393 3.2098L9.34909 1.55171ZM3.70761 3.1705L1.00095 5.71383L2.16507 6.95271L4.87173 4.40938L3.70761 3.1705ZM13.8343 8.04717L11.1276 10.5905L12.2917 11.8294L14.9984 9.28605L13.8343 8.04717ZM11.1085 10.6091C10.0405 11.6776 8.49895 12.1235 7.02543 11.7901L6.65027 13.4482C8.6931 13.9104 10.8302 13.2922 12.3109 11.8108L11.1085 10.6091ZM7.02543 11.7901C5.55191 11.4567 4.35248 10.3906 3.84849 8.96638L2.24587 9.5335C2.94458 11.508 4.60743 12.9859 6.65027 13.4482L7.02543 11.7901Z" fill="#949499"/>
</svg>
