<svg width="16" height="15" viewBox="0 0 16 15" fill="none" xmlns="http://www.w3.org/2000/svg">
<path d="M1.5835 2.83325V6.33325H5.0835" stroke="#949499" stroke-width="2" stroke-linecap="round" stroke-linejoin="round"/>
<path d="M14.4165 12.1667V8.66675H10.9165" stroke="#949499" stroke-width="2" stroke-linecap="round" stroke-linejoin="round"/>
<path d="M12.1514 6.0335C12.308 6.47605 12.7937 6.70785 13.2362 6.55125C13.6788 6.39464 13.9106 5.90893 13.754 5.46638L12.1514 6.0335ZM4.29016 3.78994L4.87222 4.40938C4.8787 4.4033 4.88507 4.39711 4.89135 4.39083L4.29016 3.78994ZM1.00144 5.71383C0.659329 6.0353 0.642593 6.57323 0.964056 6.91533C1.28552 7.25744 1.82345 7.27418 2.16556 6.95271L1.00144 5.71383ZM14.9989 9.28605C15.341 8.96458 15.3577 8.42665 15.0363 8.08455C14.7148 7.74244 14.1769 7.7257 13.8348 8.04717L14.9989 9.28605ZM11.7102 11.2099L11.1281 10.5905C11.1216 10.5966 11.1153 10.6028 11.109 10.6091L11.7102 11.2099ZM3.84898 8.96638C3.69237 8.52383 3.20666 8.29203 2.76411 8.44863C2.32156 8.60524 2.08976 9.09095 2.24636 9.5335L3.84898 8.96638ZM13.754 5.46638C13.0553 3.49189 11.3924 2.01393 9.34958 1.55171L8.97441 3.2098C10.4479 3.5432 11.6474 4.60927 12.1514 6.0335L13.754 5.46638ZM9.34958 1.55171C7.30674 1.0895 5.16962 1.70766 3.68897 3.18905L4.89135 4.39083C5.95936 3.32229 7.50089 2.8764 8.97441 3.2098L9.34958 1.55171ZM3.7081 3.1705L1.00144 5.71383L2.16556 6.95271L4.87222 4.40938L3.7081 3.1705ZM13.8348 8.04717L11.1281 10.5905L12.2922 11.8294L14.9989 9.28605L13.8348 8.04717ZM11.109 10.6091C10.041 11.6776 8.49944 12.1235 7.02592 11.7901L6.65075 13.4482C8.69359 13.9104 10.8307 13.2922 12.3114 11.8108L11.109 10.6091ZM7.02592 11.7901C5.5524 11.4567 4.35296 10.3906 3.84898 8.96638L2.24636 9.5335C2.94507 11.508 4.60792 12.9859 6.65075 13.4482L7.02592 11.7901Z" fill="#949499"/>
</svg>
