<svg width="24" height="24" viewBox="0 0 24 24" fill="none" xmlns="http://www.w3.org/2000/svg">
<path fill-rule="evenodd" clip-rule="evenodd" d="M2 12C2 6.48 6.48 2 12 2C17.52 2 22 6.48 22 12C22 17.52 17.52 22 12 22C6.48 22 2 17.52 2 12ZM12 16C12.5523 16 13 16.4477 13 17C13 17.5523 12.5523 18 12 18C11.4477 18 11 17.5523 11 17C11 16.4477 11.4477 16 12 16ZM12 20C7.59 20 4 16.41 4 12C4 7.59 7.59 4 12 4C16.41 4 20 7.59 20 12C20 16.41 16.41 20 12 20ZM9 10C8.44772 10 7.98716 9.54534 8.12331 9.0101C8.56356 7.27928 10.1317 6 12 6C14.21 6 16 7.79 16 10C16 11.2829 15.21 11.9733 14.4408 12.6455C13.9577 13.0677 13.4829 13.4826 13.217 14.0326C12.9767 14.5299 12.5523 15 12 15C11.4477 15 10.98 14.5446 11.1101 14.0079C11.3823 12.8857 12.1123 12.3262 12.7704 11.8217C13.4202 11.3236 14 10.8792 14 10C14 8.9 13.1 8 12 8C11.2466 8 10.5871 8.42215 10.2462 9.04157C9.97995 9.52543 9.55228 10 9 10Z" fill="white"/>
</svg>
