<svg width="20" height="20" viewBox="0 0 20 20" fill="none" xmlns="http://www.w3.org/2000/svg">
<path d="M17.5466 10.0001H15.8799C15.6589 10.0001 15.4469 10.0879 15.2906 10.2442C15.1344 10.4004 15.0466 10.6124 15.0466 10.8334C15.0466 11.0544 15.1344 11.2664 15.2906 11.4227C15.4469 11.579 15.6589 11.6668 15.8799 11.6668V13.3334H14.893C14.9918 13.0666 15.0438 12.7846 15.0466 12.5001C15.0466 11.9497 14.8651 11.4147 14.5301 10.9781C14.1951 10.5415 13.7253 10.2276 13.1937 10.0852C12.6621 9.9428 12.0984 9.97981 11.59 10.1905C11.0816 10.4012 10.6569 10.7738 10.3818 11.2505C10.3266 11.3453 10.2906 11.4501 10.276 11.5589C10.2614 11.6676 10.2684 11.7782 10.2966 11.8843C10.3248 11.9903 10.3737 12.0897 10.4405 12.1768C10.5072 12.2639 10.5905 12.337 10.6856 12.3918C10.7806 12.4466 10.8856 12.4821 10.9944 12.4963C11.1032 12.5104 11.2138 12.5029 11.3197 12.4742C11.4256 12.4456 11.5248 12.3962 11.6116 12.3291C11.6985 12.2619 11.7711 12.1783 11.8255 12.083C11.8987 11.9565 12.0039 11.8515 12.1304 11.7785C12.2569 11.7054 12.4005 11.6669 12.5466 11.6668C12.7676 11.6668 12.9795 11.7546 13.1358 11.9108C13.2921 12.0671 13.3799 12.2791 13.3799 12.5001C13.3799 12.7211 13.2921 12.9331 13.1358 13.0893C12.9795 13.2456 12.7676 13.3334 12.5466 13.3334C12.3255 13.3334 12.1136 13.4212 11.9573 13.5775C11.801 13.7338 11.7132 13.9457 11.7132 14.1668C11.7132 14.3878 11.801 14.5997 11.9573 14.756C12.1136 14.9123 12.3255 15.0001 12.5466 15.0001C12.7676 15.0001 12.9795 15.0879 13.1358 15.2442C13.2921 15.4004 13.3799 15.6124 13.3799 15.8334C13.3799 16.0544 13.2921 16.2664 13.1358 16.4227C12.9795 16.579 12.7676 16.6668 12.5466 16.6668C12.4005 16.6666 12.2569 16.6281 12.1304 16.555C12.0039 16.482 11.8987 16.377 11.8255 16.2505C11.7711 16.1552 11.6985 16.0716 11.6117 16.0044C11.5249 15.9373 11.4256 15.8879 11.3197 15.8592C11.2138 15.8305 11.1033 15.8231 10.9944 15.8372C10.8856 15.8513 10.7806 15.8868 10.6856 15.9417C10.5905 15.9965 10.5072 16.0695 10.4405 16.1566C10.3737 16.2438 10.3248 16.3432 10.2966 16.4492C10.2684 16.5553 10.2614 16.6659 10.276 16.7746C10.2906 16.8834 10.3266 16.9882 10.3819 17.083C10.6569 17.5597 11.0816 17.9323 11.59 18.143C12.0984 18.3537 12.6621 18.3907 13.1937 18.2483C13.7253 18.1059 14.1951 17.792 14.5301 17.3554C14.8651 16.9187 15.0466 16.3838 15.0466 15.8334C15.0438 15.5489 14.9918 15.2669 14.893 15.0001H15.8799V17.5001C15.8799 17.7211 15.9677 17.9331 16.124 18.0893C16.2803 18.2456 16.4922 18.3334 16.7132 18.3334C16.9342 18.3334 17.1462 18.2456 17.3025 18.0893C17.4588 17.9331 17.5466 17.7211 17.5466 17.5001V11.6668C17.7676 11.6668 17.9795 11.579 18.1358 11.4227C18.2921 11.2664 18.3799 11.0544 18.3799 10.8334C18.3799 10.6124 18.2921 10.4004 18.1358 10.2442C17.9795 10.0879 17.7676 10.0001 17.5466 10.0001ZM7.5718 9.36899C7.62543 9.58331 7.76201 9.76755 7.95149 9.88117C8.04531 9.93743 8.14929 9.97466 8.25749 9.99073C8.3657 10.0068 8.47601 10.0014 8.58213 9.97486C8.68826 9.9483 8.78811 9.9011 8.87599 9.83595C8.96387 9.7708 9.03806 9.68899 9.09432 9.59517C9.15058 9.50135 9.18781 9.39737 9.20388 9.28916C9.21996 9.18095 9.21456 9.07064 9.18801 8.96452L7.72397 3.10637C7.62121 2.69518 7.38394 2.33014 7.04988 2.06929C6.71582 1.80844 6.30415 1.66675 5.88031 1.66675C5.45647 1.66675 5.04479 1.80844 4.71073 2.06929C4.37667 2.33014 4.1394 2.69518 4.03664 3.10637L2.5718 8.96452C2.51816 9.17884 2.55186 9.40569 2.66549 9.59517C2.77911 9.78464 2.96335 9.92122 3.17767 9.97486C3.39199 10.0285 3.61884 9.99479 3.80832 9.88117C3.99779 9.76755 4.13437 9.58331 4.18801 9.36899L4.65533 7.50009H7.10472L7.5718 9.36899ZM5.0721 5.83342L5.65285 3.51083C5.67046 3.46477 5.70163 3.42515 5.74224 3.3972C5.78286 3.36924 5.831 3.35428 5.88031 3.35428C5.92961 3.35428 5.97775 3.36924 6.01837 3.3972C6.05898 3.42515 6.09016 3.46477 6.10776 3.51083L6.68821 5.83342H5.0721ZM11.7132 5.83342H12.5466C12.7675 5.83364 12.9793 5.92151 13.1356 6.07774C13.2918 6.23397 13.3797 6.44581 13.3799 6.66675V7.50009C13.3799 7.7211 13.4677 7.93306 13.624 8.08934C13.7803 8.24562 13.9922 8.33342 14.2132 8.33342C14.4342 8.33342 14.6462 8.24562 14.8025 8.08934C14.9588 7.93306 15.0466 7.7211 15.0466 7.50009V6.66675C15.0458 6.00393 14.7822 5.36847 14.3135 4.89978C13.8448 4.4311 13.2094 4.16748 12.5466 4.16675H11.7132C11.4922 4.16675 11.2803 4.25455 11.124 4.41083C10.9677 4.56711 10.8799 4.77907 10.8799 5.00009C10.8799 5.2211 10.9677 5.43306 11.124 5.58934C11.2803 5.74562 11.4922 5.83342 11.7132 5.83342ZM8.3799 13.3334H7.54656C7.32562 13.3332 7.11378 13.2453 6.95755 13.0891C6.80132 12.9329 6.71345 12.721 6.71323 12.5001V11.6668C6.71323 11.4457 6.62543 11.2338 6.46915 11.0775C6.31287 10.9212 6.10091 10.8334 5.8799 10.8334C5.65888 10.8334 5.44692 10.9212 5.29064 11.0775C5.13436 11.2338 5.04656 11.4457 5.04656 11.6668V12.5001C5.04729 13.1629 5.31091 13.7984 5.7796 14.2671C6.24828 14.7357 6.88375 14.9994 7.54656 15.0001H8.3799C8.60091 15.0001 8.81287 14.9123 8.96915 14.756C9.12543 14.5997 9.21323 14.3878 9.21323 14.1668C9.21323 13.9457 9.12543 13.7338 8.96915 13.5775C8.81287 13.4212 8.60091 13.3334 8.3799 13.3334Z" fill="#3E3E3E"/>
</svg>
