<svg width="20" height="20" viewBox="0 0 20 20" fill="none" xmlns="http://www.w3.org/2000/svg">
<path d="M17.5463 10.0001H15.8797C15.6586 10.0001 15.4467 10.0879 15.2904 10.2442C15.1341 10.4004 15.0463 10.6124 15.0463 10.8334C15.0463 11.0544 15.1341 11.2664 15.2904 11.4227C15.4467 11.579 15.6586 11.6668 15.8797 11.6668V13.3334H14.8928C14.9916 13.0666 15.0435 12.7846 15.0463 12.5001C15.0464 11.9497 14.8649 11.4147 14.5299 10.9781C14.1948 10.5415 13.7251 10.2276 13.1935 10.0852C12.6619 9.9428 12.0981 9.97981 11.5897 10.1905C11.0813 10.4012 10.6566 10.7738 10.3816 11.2505C10.3264 11.3453 10.2904 11.4501 10.2758 11.5589C10.2611 11.6676 10.2681 11.7782 10.2963 11.8843C10.3246 11.9903 10.3735 12.0897 10.4402 12.1768C10.507 12.2639 10.5903 12.337 10.6853 12.3918C10.7804 12.4466 10.8854 12.4821 10.9942 12.4963C11.103 12.5104 11.2135 12.5029 11.3195 12.4742C11.4254 12.4456 11.5246 12.3962 11.6114 12.3291C11.6982 12.2619 11.7709 12.1783 11.8253 12.083C11.8985 11.9565 12.0036 11.8515 12.1302 11.7785C12.2567 11.7054 12.4002 11.6669 12.5463 11.6668C12.7673 11.6668 12.9793 11.7546 13.1356 11.9108C13.2919 12.0671 13.3797 12.2791 13.3797 12.5001C13.3797 12.7211 13.2919 12.9331 13.1356 13.0893C12.9793 13.2456 12.7673 13.3334 12.5463 13.3334C12.3253 13.3334 12.1133 13.4212 11.9571 13.5775C11.8008 13.7338 11.713 13.9457 11.713 14.1668C11.713 14.3878 11.8008 14.5997 11.9571 14.756C12.1133 14.9123 12.3253 15.0001 12.5463 15.0001C12.7673 15.0001 12.9793 15.0879 13.1356 15.2442C13.2919 15.4004 13.3797 15.6124 13.3797 15.8334C13.3797 16.0544 13.2919 16.2664 13.1356 16.4227C12.9793 16.579 12.7673 16.6668 12.5463 16.6668C12.4002 16.6666 12.2567 16.6281 12.1302 16.555C12.0036 16.482 11.8985 16.377 11.8253 16.2505C11.7709 16.1552 11.6982 16.0716 11.6114 16.0044C11.5246 15.9373 11.4254 15.8879 11.3195 15.8592C11.2136 15.8305 11.103 15.8231 10.9942 15.8372C10.8854 15.8513 10.7804 15.8868 10.6853 15.9417C10.5903 15.9965 10.507 16.0695 10.4402 16.1566C10.3735 16.2438 10.3246 16.3432 10.2963 16.4492C10.2681 16.5553 10.2611 16.6659 10.2758 16.7746C10.2904 16.8834 10.3264 16.9882 10.3816 17.083C10.6567 17.5597 11.0813 17.9323 11.5897 18.143C12.0981 18.3537 12.6619 18.3907 13.1935 18.2483C13.7251 18.1059 14.1948 17.792 14.5298 17.3554C14.8648 16.9187 15.0464 16.3838 15.0463 15.8334C15.0435 15.5489 14.9916 15.2669 14.8928 15.0001H15.8797V17.5001C15.8797 17.7211 15.9674 17.9331 16.1237 18.0893C16.28 18.2456 16.492 18.3334 16.713 18.3334C16.934 18.3334 17.146 18.2456 17.3022 18.0893C17.4585 17.9331 17.5463 17.7211 17.5463 17.5001V11.6668C17.7673 11.6668 17.9793 11.579 18.1356 11.4227C18.2919 11.2664 18.3797 11.0544 18.3797 10.8334C18.3797 10.6124 18.2919 10.4004 18.1356 10.2442C17.9793 10.0879 17.7673 10.0001 17.5463 10.0001ZM7.57155 9.36899C7.62519 9.58331 7.76177 9.76755 7.95124 9.88117C8.04506 9.93743 8.14904 9.97466 8.25725 9.99073C8.36546 10.0068 8.47577 10.0014 8.58189 9.97486C8.68801 9.9483 8.78786 9.9011 8.87574 9.83595C8.96363 9.7708 9.03781 9.68899 9.09407 9.59517C9.15033 9.50135 9.18757 9.39737 9.20364 9.28916C9.21972 9.18095 9.21432 9.07064 9.18776 8.96452L7.72373 3.10637C7.62097 2.69518 7.3837 2.33014 7.04964 2.06929C6.71558 1.80844 6.3039 1.66675 5.88006 1.66675C5.45622 1.66675 5.04455 1.80844 4.71049 2.06929C4.37643 2.33014 4.13916 2.69518 4.0364 3.10637L2.57155 8.96452C2.51792 9.17884 2.55162 9.40569 2.66524 9.59517C2.77886 9.78464 2.9631 9.92122 3.17742 9.97486C3.39175 10.0285 3.6186 9.99479 3.80807 9.88117C3.99755 9.76755 4.13413 9.58331 4.18776 9.36899L4.65509 7.50009H7.10448L7.57155 9.36899ZM5.07185 5.83342L5.6526 3.51083C5.67021 3.46477 5.70138 3.42515 5.742 3.3972C5.78261 3.36924 5.83076 3.35428 5.88006 3.35428C5.92937 3.35428 5.97751 3.36924 6.01813 3.3972C6.05874 3.42515 6.08991 3.46477 6.10752 3.51083L6.68796 5.83342H5.07185ZM11.713 5.83342H12.5463C12.7673 5.83364 12.9791 5.92151 13.1353 6.07774C13.2916 6.23397 13.3794 6.44581 13.3797 6.66675V7.50009C13.3797 7.7211 13.4674 7.93306 13.6237 8.08934C13.78 8.24562 13.992 8.33342 14.213 8.33342C14.434 8.33342 14.646 8.24562 14.8022 8.08934C14.9585 7.93306 15.0463 7.7211 15.0463 7.50009V6.66675C15.0456 6.00393 14.782 5.36847 14.3133 4.89978C13.8446 4.4311 13.2091 4.16748 12.5463 4.16675H11.713C11.492 4.16675 11.28 4.25455 11.1237 4.41083C10.9675 4.56711 10.8797 4.77907 10.8797 5.00009C10.8797 5.2211 10.9675 5.43306 11.1237 5.58934C11.28 5.74562 11.492 5.83342 11.713 5.83342ZM8.37965 13.3334H7.54632C7.32537 13.3332 7.11354 13.2453 6.95731 13.0891C6.80108 12.9329 6.71321 12.721 6.71299 12.5001V11.6668C6.71299 11.4457 6.62519 11.2338 6.46891 11.0775C6.31263 10.9212 6.10067 10.8334 5.87965 10.8334C5.65864 10.8334 5.44668 10.9212 5.2904 11.0775C5.13412 11.2338 5.04632 11.4457 5.04632 11.6668V12.5001C5.04704 13.1629 5.31067 13.7984 5.77935 14.2671C6.24804 14.7357 6.8835 14.9994 7.54632 15.0001H8.37965C8.60067 15.0001 8.81263 14.9123 8.96891 14.756C9.12519 14.5997 9.21299 14.3878 9.21299 14.1668C9.21299 13.9457 9.12519 13.7338 8.96891 13.5775C8.81263 13.4212 8.60067 13.3334 8.37965 13.3334Z" fill="#3E3E3E"/>
</svg>
