<svg width="20" height="20" viewBox="0 0 20 20" fill="none" xmlns="http://www.w3.org/2000/svg">
<path d="M17.5464 10.0001H15.8798C15.6588 10.0001 15.4468 10.0879 15.2905 10.2442C15.1342 10.4004 15.0464 10.6124 15.0464 10.8334C15.0464 11.0544 15.1342 11.2664 15.2905 11.4227C15.4468 11.579 15.6588 11.6668 15.8798 11.6668V13.3334H14.8929C14.9917 13.0666 15.0436 12.7846 15.0464 12.5001C15.0465 11.9497 14.865 11.4147 14.53 10.9781C14.195 10.5415 13.7252 10.2276 13.1936 10.0852C12.662 9.9428 12.0983 9.97981 11.5899 10.1905C11.0814 10.4012 10.6568 10.7738 10.3817 11.2505C10.3265 11.3453 10.2905 11.4501 10.2759 11.5589C10.2612 11.6676 10.2682 11.7782 10.2965 11.8843C10.3247 11.9903 10.3736 12.0897 10.4403 12.1768C10.5071 12.2639 10.5904 12.337 10.6855 12.3918C10.7805 12.4466 10.8855 12.4821 10.9943 12.4963C11.1031 12.5104 11.2137 12.5029 11.3196 12.4742C11.4255 12.4456 11.5247 12.3962 11.6115 12.3291C11.6983 12.2619 11.771 12.1783 11.8254 12.083C11.8986 11.9565 12.0037 11.8515 12.1303 11.7785C12.2568 11.7054 12.4003 11.6669 12.5464 11.6668C12.7675 11.6668 12.9794 11.7546 13.1357 11.9108C13.292 12.0671 13.3798 12.2791 13.3798 12.5001C13.3798 12.7211 13.292 12.9331 13.1357 13.0893C12.9794 13.2456 12.7675 13.3334 12.5464 13.3334C12.3254 13.3334 12.1135 13.4212 11.9572 13.5775C11.8009 13.7338 11.7131 13.9457 11.7131 14.1668C11.7131 14.3878 11.8009 14.5997 11.9572 14.756C12.1135 14.9123 12.3254 15.0001 12.5464 15.0001C12.7675 15.0001 12.9794 15.0879 13.1357 15.2442C13.292 15.4004 13.3798 15.6124 13.3798 15.8334C13.3798 16.0544 13.292 16.2664 13.1357 16.4227C12.9794 16.579 12.7675 16.6668 12.5464 16.6668C12.4003 16.6666 12.2568 16.6281 12.1303 16.555C12.0037 16.482 11.8986 16.377 11.8254 16.2505C11.771 16.1552 11.6983 16.0716 11.6115 16.0044C11.5247 15.9373 11.4255 15.8879 11.3196 15.8592C11.2137 15.8305 11.1031 15.8231 10.9943 15.8372C10.8855 15.8513 10.7805 15.8868 10.6855 15.9417C10.5904 15.9965 10.5071 16.0695 10.4403 16.1566C10.3736 16.2438 10.3247 16.3432 10.2965 16.4492C10.2683 16.5553 10.2613 16.6659 10.2759 16.7746C10.2905 16.8834 10.3265 16.9882 10.3817 17.083C10.6568 17.5597 11.0814 17.9323 11.5899 18.143C12.0983 18.3537 12.662 18.3907 13.1936 18.2483C13.7252 18.1059 14.195 17.792 14.53 17.3554C14.865 16.9187 15.0465 16.3838 15.0464 15.8334C15.0436 15.5489 14.9917 15.2669 14.8929 15.0001H15.8798V17.5001C15.8798 17.7211 15.9676 17.9331 16.1239 18.0893C16.2801 18.2456 16.4921 18.3334 16.7131 18.3334C16.9341 18.3334 17.1461 18.2456 17.3024 18.0893C17.4586 17.9331 17.5464 17.7211 17.5464 17.5001V11.6668C17.7675 11.6668 17.9794 11.579 18.1357 11.4227C18.292 11.2664 18.3798 11.0544 18.3798 10.8334C18.3798 10.6124 18.292 10.4004 18.1357 10.2442C17.9794 10.0879 17.7675 10.0001 17.5464 10.0001ZM7.57168 9.36899C7.62531 9.58331 7.76189 9.76755 7.95136 9.88117C8.04518 9.93743 8.14916 9.97466 8.25737 9.99073C8.36558 10.0068 8.47589 10.0014 8.58201 9.97486C8.68813 9.9483 8.78799 9.9011 8.87587 9.83595C8.96375 9.7708 9.03794 9.68899 9.0942 9.59517C9.15046 9.50135 9.18769 9.39737 9.20376 9.28916C9.21984 9.18095 9.21444 9.07064 9.18788 8.96452L7.72385 3.10637C7.62109 2.69518 7.38382 2.33014 7.04976 2.06929C6.7157 1.80844 6.30402 1.66675 5.88018 1.66675C5.45635 1.66675 5.04467 1.80844 4.71061 2.06929C4.37655 2.33014 4.13928 2.69518 4.03652 3.10637L2.57168 8.96452C2.51804 9.17884 2.55174 9.40569 2.66536 9.59517C2.77899 9.78464 2.96322 9.92122 3.17755 9.97486C3.39187 10.0285 3.61872 9.99479 3.8082 9.88117C3.99767 9.76755 4.13425 9.58331 4.18788 9.36899L4.65521 7.50009H7.1046L7.57168 9.36899ZM5.07198 5.83342L5.65273 3.51083C5.67033 3.46477 5.70151 3.42515 5.74212 3.3972C5.78274 3.36924 5.83088 3.35428 5.88018 3.35428C5.92949 3.35428 5.97763 3.36924 6.01825 3.3972C6.05886 3.42515 6.09003 3.46477 6.10764 3.51083L6.68808 5.83342H5.07198ZM11.7131 5.83342H12.5464C12.7674 5.83364 12.9792 5.92151 13.1355 6.07774C13.2917 6.23397 13.3796 6.44581 13.3798 6.66675V7.50009C13.3798 7.7211 13.4676 7.93306 13.6239 8.08934C13.7801 8.24562 13.9921 8.33342 14.2131 8.33342C14.4341 8.33342 14.6461 8.24562 14.8024 8.08934C14.9586 7.93306 15.0464 7.7211 15.0464 7.50009V6.66675C15.0457 6.00393 14.7821 5.36847 14.3134 4.89978C13.8447 4.4311 13.2093 4.16748 12.5464 4.16675H11.7131C11.4921 4.16675 11.2801 4.25455 11.1239 4.41083C10.9676 4.56711 10.8798 4.77907 10.8798 5.00009C10.8798 5.2211 10.9676 5.43306 11.1239 5.58934C11.2801 5.74562 11.4921 5.83342 11.7131 5.83342ZM8.37978 13.3334H7.54644C7.3255 13.3332 7.11366 13.2453 6.95743 13.0891C6.8012 12.9329 6.71333 12.721 6.71311 12.5001V11.6668C6.71311 11.4457 6.62531 11.2338 6.46903 11.0775C6.31275 10.9212 6.10079 10.8334 5.87978 10.8334C5.65876 10.8334 5.4468 10.9212 5.29052 11.0775C5.13424 11.2338 5.04644 11.4457 5.04644 11.6668V12.5001C5.04717 13.1629 5.31079 13.7984 5.77947 14.2671C6.24816 14.7357 6.88362 14.9994 7.54644 15.0001H8.37978C8.60079 15.0001 8.81275 14.9123 8.96903 14.756C9.12531 14.5997 9.21311 14.3878 9.21311 14.1668C9.21311 13.9457 9.12531 13.7338 8.96903 13.5775C8.81275 13.4212 8.60079 13.3334 8.37978 13.3334Z" fill="#3E3E3E"/>
</svg>
