<svg width="16" height="16" viewBox="0 0 16 16" fill="none" xmlns="http://www.w3.org/2000/svg">
<path d="M12.9187 8.53261H5.33811C5.10839 8.53261 4.9221 8.3189 4.9221 8.05604C4.9221 7.79318 5.10839 7.57947 5.33811 7.57947H13.0158L12.3838 7.0149L12.2055 6.83318C12.1153 6.74125 12.0643 6.6178 12.0635 6.48897C12.0626 6.36013 12.1119 6.23602 12.201 6.1429C12.2442 6.09801 12.296 6.06218 12.3532 6.0375C12.4105 6.01282 12.472 5.99978 12.5344 5.99914C12.5967 5.9985 12.6586 6.01028 12.7163 6.03378C12.774 6.05729 12.8265 6.09205 12.8707 6.13604L14.4112 7.59776C14.4661 7.64993 14.5101 7.71248 14.5406 7.7818C14.5711 7.85111 14.5875 7.92579 14.5889 8.0015C14.5903 8.07722 14.5766 8.15245 14.5487 8.22283C14.5207 8.29321 14.4791 8.35733 14.4261 8.41147C13.409 9.4549 12.8981 9.97718 12.8947 9.97947C12.8026 10.0671 12.6796 10.1146 12.5525 10.1116C12.4255 10.1086 12.3048 10.0553 12.217 9.96347C12.1232 9.86524 12.0703 9.73509 12.0688 9.59933C12.0673 9.46357 12.1174 9.3323 12.209 9.23204L12.3838 9.04004L12.9187 8.53261ZM13.0695 4.3189C12.9575 4.39104 12.8223 4.41796 12.6911 4.3942C12.56 4.37043 12.4428 4.29777 12.3632 4.1909C11.7869 3.43321 11.043 2.81912 10.1899 2.39662C9.33681 1.97413 8.39753 1.75469 7.44553 1.75547C6.3852 1.75518 5.3426 2.02758 4.41792 2.54651C3.49324 3.06544 2.71756 3.81345 2.1654 4.71868C1.61324 5.62391 1.30317 6.65592 1.26497 7.71557C1.22677 8.77522 1.46172 9.82689 1.94726 10.7695C2.43281 11.7122 3.15261 12.5141 4.03752 13.0983C4.92243 13.6824 5.94271 14.0292 7.00031 14.1053C8.05792 14.1813 9.11732 13.9841 10.0767 13.5326C11.0361 13.081 11.8632 12.3904 12.4787 11.5269C12.5552 11.4173 12.6704 11.3409 12.8011 11.3131C12.9318 11.2853 13.0682 11.3082 13.1827 11.3772C13.2391 11.411 13.2879 11.456 13.3262 11.5095C13.3645 11.5629 13.3915 11.6236 13.4054 11.6879C13.4193 11.7521 13.4199 11.8186 13.4072 11.8831C13.3944 11.9476 13.3686 12.0088 13.3312 12.0629C13.2362 12.2026 13.1359 12.3387 13.0307 12.4709C12.0869 13.6339 10.8037 14.4734 9.35998 14.8721C7.91626 15.2708 6.38409 15.2089 4.97724 14.6951C3.57038 14.1812 2.35902 13.241 1.51216 12.0056C0.665299 10.7703 0.225181 9.30137 0.253214 7.80388C0.281246 6.30638 0.776029 4.85498 1.66853 3.65218C2.56103 2.44938 3.80674 1.55517 5.23184 1.09433C6.65693 0.633479 8.19035 0.628976 9.61813 1.08145C11.0459 1.53392 12.2968 2.42079 13.1964 3.61833C13.2364 3.67178 13.2649 3.73288 13.2803 3.79784C13.2957 3.8628 13.2975 3.93022 13.2857 3.99592C13.2739 4.06162 13.2488 4.1242 13.2118 4.17976C13.1748 4.23532 13.1267 4.28268 13.0707 4.3189H13.0695Z" fill="#949499"/>
</svg>
