<svg width="2" height="12" viewBox="0 0 2 12" fill="none" xmlns="http://www.w3.org/2000/svg">
<path d="M1 9.33333C1.26522 9.33333 1.51957 9.43869 1.70711 9.62623C1.89464 9.81376 2 10.0681 2 10.3333C2 10.5985 1.89464 10.8529 1.70711 11.0404C1.51957 11.228 1.26522 11.3333 1 11.3333C0.734784 11.3333 0.480429 11.228 0.292893 11.0404C0.105357 10.8529 0 10.5985 0 10.3333C0 10.0681 0.105357 9.81376 0.292893 9.62623C0.480429 9.43869 0.734784 9.33333 1 9.33333ZM1 4.66667C1.26522 4.66667 1.51957 4.77202 1.70711 4.95956C1.89464 5.1471 2 5.40145 2 5.66667C2 5.93188 1.89464 6.18624 1.70711 6.37377C1.51957 6.56131 1.26522 6.66667 1 6.66667C0.734784 6.66667 0.480429 6.56131 0.292893 6.37377C0.105357 6.18624 0 5.93188 0 5.66667C0 5.40145 0.105357 5.1471 0.292893 4.95956C0.480429 4.77202 0.734784 4.66667 1 4.66667ZM1 0C1.26522 0 1.51957 0.105357 1.70711 0.292893C1.89464 0.48043 2 0.734783 2 1C2 1.26522 1.89464 1.51957 1.70711 1.70711C1.51957 1.89464 1.26522 2 1 2C0.734784 2 0.480429 1.89464 0.292893 1.70711C0.105357 1.51957 0 1.26522 0 1C0 0.734783 0.105357 0.48043 0.292893 0.292893C0.480429 0.105357 0.734784 0 1 0Z" fill="#3E3E3E"/>
</svg>
